<?xml version="1.0" encoding="utf-8"?>
<!-- Generator: Adobe Illustrator 19.2.1, SVG Export Plug-In . SVG Version: 6.00 Build 0)  -->
<svg version="1.1" id="Layer_1" xmlns="http://www.w3.org/2000/svg" xmlns:xlink="http://www.w3.org/1999/xlink" x="0px" y="0px"
	 viewBox="0 0 841.9 595.3" style="enable-background:new 0 0 841.9 595.3;" xml:space="preserve">
<style type="text/css">
	.st0{fill:none;stroke:#ED1F24;stroke-width:0.7087;stroke-linecap:round;stroke-linejoin:round;stroke-miterlimit:10;}
</style>
<g id="LWPOLYLINE_315_">
	<polygon class="st0" points="0.7,175.6 630.8,175.6 630.8,303.9 576.5,303.9 576.1,351.5 396.6,351.5 396.6,303.5 340.7,303.5 
		340.7,391.2 207.3,391.8 207.3,303.9 138.8,303.9 138.3,368.1 0.7,368.6 	"/>
</g>
<g id="LWPOLYLINE_314_">
	<rect x="74.7" y="201.6" class="st0" width="9.4" height="19"/>
</g>
<g id="LWPOLYLINE_313_">
	<rect x="84.1" y="201.6" class="st0" width="19" height="9.5"/>
</g>
<g id="LWPOLYLINE_312_">
	<rect x="103.1" y="201.6" class="st0" width="18.9" height="9.5"/>
</g>
<g id="LWPOLYLINE_311_">
	<rect x="84.1" y="211.1" class="st0" width="19" height="9.5"/>
</g>
<g id="LWPOLYLINE_310_">
	<rect x="103.1" y="211.1" class="st0" width="18.9" height="9.5"/>
</g>
<g id="LWPOLYLINE_309_">
	<rect x="74.7" y="220.7" class="st0" width="9.4" height="18.9"/>
</g>
<g id="LWPOLYLINE_308_">
	<rect x="74.7" y="239.6" class="st0" width="9.4" height="18.9"/>
</g>
<g id="LWPOLYLINE_307_">
	<rect x="74.7" y="258.5" class="st0" width="9.4" height="18.9"/>
</g>
<g id="LWPOLYLINE_306_">
	<rect x="84.1" y="258.5" class="st0" width="19" height="9.5"/>
</g>
<g id="LWPOLYLINE_305_">
	<rect x="103.1" y="258.5" class="st0" width="18.9" height="9.5"/>
</g>
<g id="LWPOLYLINE_304_">
	<rect x="84.1" y="268" class="st0" width="19" height="9.4"/>
</g>
<g id="LWPOLYLINE_303_">
	<rect x="103.1" y="268" class="st0" width="18.9" height="9.4"/>
</g>
<g id="LWPOLYLINE_302_">
	<rect x="14.2" y="201.6" class="st0" width="9.4" height="19"/>
</g>
<g id="LWPOLYLINE_301_">
	<rect x="23.6" y="201.6" class="st0" width="19" height="9.5"/>
</g>
<g id="LWPOLYLINE_300_">
	<rect x="42.6" y="201.6" class="st0" width="18.9" height="9.5"/>
</g>
<g id="LWPOLYLINE_299_">
	<rect x="23.6" y="211.1" class="st0" width="19" height="9.5"/>
</g>
<g id="LWPOLYLINE_298_">
	<rect x="42.6" y="211.1" class="st0" width="18.9" height="9.5"/>
</g>
<g id="LWPOLYLINE_297_">
	<rect x="14.2" y="220.7" class="st0" width="9.4" height="18.9"/>
</g>
<g id="LWPOLYLINE_296_">
	<rect x="14.2" y="239.6" class="st0" width="9.4" height="18.9"/>
</g>
<g id="LWPOLYLINE_295_">
	<rect x="14.2" y="258.5" class="st0" width="9.4" height="18.9"/>
</g>
<g id="LWPOLYLINE_294_">
	<rect x="23.6" y="258.5" class="st0" width="19" height="9.5"/>
</g>
<g id="LWPOLYLINE_293_">
	<rect x="42.6" y="258.5" class="st0" width="18.9" height="9.5"/>
</g>
<g id="LWPOLYLINE_292_">
	<rect x="23.6" y="268" class="st0" width="19" height="9.4"/>
</g>
<g id="LWPOLYLINE_291_">
	<rect x="42.6" y="268" class="st0" width="18.9" height="9.4"/>
</g>
<g id="LWPOLYLINE_290_">
	<rect x="512.3" y="201.6" class="st0" width="9.4" height="19"/>
</g>
<g id="LWPOLYLINE_289_">
	<rect x="521.7" y="201.6" class="st0" width="19" height="9.5"/>
</g>
<g id="LWPOLYLINE_288_">
	<rect x="540.7" y="201.6" class="st0" width="18.9" height="9.5"/>
</g>
<g id="LWPOLYLINE_287_">
	<rect x="521.7" y="211.1" class="st0" width="19" height="9.5"/>
</g>
<g id="LWPOLYLINE_286_">
	<rect x="540.7" y="211.1" class="st0" width="18.9" height="9.5"/>
</g>
<g id="LWPOLYLINE_285_">
	<rect x="512.3" y="220.7" class="st0" width="9.4" height="18.9"/>
</g>
<g id="LWPOLYLINE_284_">
	<rect x="512.3" y="239.6" class="st0" width="9.4" height="18.9"/>
</g>
<g id="LWPOLYLINE_283_">
	<rect x="512.3" y="258.5" class="st0" width="9.4" height="18.9"/>
</g>
<g id="LWPOLYLINE_282_">
	<rect x="521.7" y="258.5" class="st0" width="19" height="9.5"/>
</g>
<g id="LWPOLYLINE_281_">
	<rect x="540.7" y="258.5" class="st0" width="18.9" height="9.5"/>
</g>
<g id="LWPOLYLINE_280_">
	<rect x="521.7" y="268" class="st0" width="19" height="9.4"/>
</g>
<g id="LWPOLYLINE_279_">
	<rect x="540.7" y="268" class="st0" width="18.9" height="9.4"/>
</g>
<g id="LWPOLYLINE_278_">
	<rect x="192" y="201.6" class="st0" width="9.4" height="19"/>
</g>
<g id="LWPOLYLINE_277_">
	<rect x="173" y="201.6" class="st0" width="19" height="9.5"/>
</g>
<g id="LWPOLYLINE_276_">
	<rect x="154.1" y="201.6" class="st0" width="18.9" height="9.5"/>
</g>
<g id="LWPOLYLINE_275_">
	<rect x="173" y="211.1" class="st0" width="19" height="9.5"/>
</g>
<g id="LWPOLYLINE_274_">
	<rect x="154.1" y="211.1" class="st0" width="18.9" height="9.5"/>
</g>
<g id="LWPOLYLINE_273_">
	<rect x="192" y="220.7" class="st0" width="9.4" height="18.9"/>
</g>
<g id="LWPOLYLINE_272_">
	<rect x="192" y="239.6" class="st0" width="9.4" height="18.9"/>
</g>
<g id="LWPOLYLINE_271_">
	<rect x="192" y="258.5" class="st0" width="9.4" height="18.9"/>
</g>
<g id="LWPOLYLINE_270_">
	<rect x="173" y="258.5" class="st0" width="19" height="9.5"/>
</g>
<g id="LWPOLYLINE_269_">
	<rect x="154.1" y="258.5" class="st0" width="18.9" height="9.5"/>
</g>
<g id="LWPOLYLINE_268_">
	<rect x="173" y="268" class="st0" width="19" height="9.4"/>
</g>
<g id="LWPOLYLINE_267_">
	<rect x="154.1" y="268" class="st0" width="18.9" height="9.4"/>
</g>
<g id="LWPOLYLINE_266_">
	<rect x="408" y="239.6" class="st0" width="19" height="9.4"/>
</g>
<g id="LWPOLYLINE_265_">
	<rect x="408" y="220.5" class="st0" width="9.5" height="19"/>
</g>
<g id="LWPOLYLINE_264_">
	<rect x="408" y="201.6" class="st0" width="9.5" height="18.9"/>
</g>
<g id="LWPOLYLINE_263_">
	<rect x="417.5" y="220.5" class="st0" width="9.5" height="19"/>
</g>
<g id="LWPOLYLINE_262_">
	<rect x="417.5" y="201.6" class="st0" width="9.5" height="18.9"/>
</g>
<g id="LWPOLYLINE_261_">
	<rect x="427" y="239.6" class="st0" width="18.9" height="9.4"/>
</g>
<g id="LWPOLYLINE_260_">
	<rect x="445.9" y="239.6" class="st0" width="18.9" height="9.4"/>
</g>
<g id="LWPOLYLINE_259_">
	<rect x="464.9" y="239.6" class="st0" width="18.9" height="9.4"/>
</g>
<g id="LWPOLYLINE_258_">
	<rect x="464.9" y="220.5" class="st0" width="9.5" height="19"/>
</g>
<g id="LWPOLYLINE_257_">
	<rect x="464.9" y="201.6" class="st0" width="9.5" height="18.9"/>
</g>
<g id="LWPOLYLINE_256_">
	<rect x="474.4" y="220.5" class="st0" width="9.4" height="19"/>
</g>
<g id="LWPOLYLINE_255_">
	<rect x="474.4" y="201.6" class="st0" width="9.4" height="18.9"/>
</g>
<g id="LWPOLYLINE_254_">
	<rect x="408" y="303.4" class="st0" width="19" height="9.4"/>
</g>
<g id="LWPOLYLINE_253_">
	<rect x="408" y="284.4" class="st0" width="9.5" height="19"/>
</g>
<g id="LWPOLYLINE_252_">
	<rect x="408" y="265.4" class="st0" width="9.5" height="18.9"/>
</g>
<g id="LWPOLYLINE_251_">
	<rect x="417.5" y="284.4" class="st0" width="9.5" height="19"/>
</g>
<g id="LWPOLYLINE_250_">
	<rect x="417.5" y="265.4" class="st0" width="9.5" height="18.9"/>
</g>
<g id="LWPOLYLINE_249_">
	<rect x="427" y="303.4" class="st0" width="18.9" height="9.4"/>
</g>
<g id="LWPOLYLINE_248_">
	<rect x="445.9" y="303.4" class="st0" width="18.9" height="9.4"/>
</g>
<g id="LWPOLYLINE_247_">
	<rect x="464.9" y="303.4" class="st0" width="18.9" height="9.4"/>
</g>
<g id="LWPOLYLINE_246_">
	<rect x="464.9" y="284.4" class="st0" width="9.5" height="19"/>
</g>
<g id="LWPOLYLINE_245_">
	<rect x="464.9" y="265.4" class="st0" width="9.5" height="18.9"/>
</g>
<g id="LWPOLYLINE_244_">
	<rect x="474.4" y="284.4" class="st0" width="9.4" height="19"/>
</g>
<g id="LWPOLYLINE_243_">
	<rect x="474.4" y="265.4" class="st0" width="9.4" height="18.9"/>
</g>
<g id="LWPOLYLINE_242_">
	<rect x="228.6" y="239.6" class="st0" width="19" height="9.4"/>
</g>
<g id="LWPOLYLINE_241_">
	<rect x="228.6" y="220.5" class="st0" width="9.5" height="19"/>
</g>
<g id="LWPOLYLINE_240_">
	<rect x="228.6" y="201.6" class="st0" width="9.5" height="18.9"/>
</g>
<g id="LWPOLYLINE_239_">
	<rect x="238.1" y="220.5" class="st0" width="9.5" height="19"/>
</g>
<g id="LWPOLYLINE_238_">
	<rect x="238.1" y="201.6" class="st0" width="9.5" height="18.9"/>
</g>
<g id="LWPOLYLINE_237_">
	<rect x="247.6" y="239.6" class="st0" width="18.9" height="9.4"/>
</g>
<g id="LWPOLYLINE_236_">
	<rect x="266.5" y="239.6" class="st0" width="18.9" height="9.4"/>
</g>
<g id="LWPOLYLINE_235_">
	<rect x="285.4" y="239.6" class="st0" width="18.9" height="9.4"/>
</g>
<g id="LWPOLYLINE_234_">
	<rect x="285.4" y="220.5" class="st0" width="9.5" height="19"/>
</g>
<g id="LWPOLYLINE_233_">
	<rect x="285.4" y="201.6" class="st0" width="9.5" height="18.9"/>
</g>
<g id="LWPOLYLINE_232_">
	<rect x="294.9" y="220.5" class="st0" width="9.4" height="19"/>
</g>
<g id="LWPOLYLINE_231_">
	<rect x="294.9" y="201.6" class="st0" width="9.4" height="18.9"/>
</g>
<g id="LWPOLYLINE_230_">
	<rect x="335.2" y="201.6" class="st0" width="9.4" height="19"/>
</g>
<g id="LWPOLYLINE_229_">
	<rect x="344.6" y="201.6" class="st0" width="19" height="9.5"/>
</g>
<g id="LWPOLYLINE_228_">
	<rect x="363.6" y="201.6" class="st0" width="18.9" height="9.5"/>
</g>
<g id="LWPOLYLINE_227_">
	<rect x="344.6" y="211.1" class="st0" width="19" height="9.5"/>
</g>
<g id="LWPOLYLINE_226_">
	<rect x="363.6" y="211.1" class="st0" width="18.9" height="9.5"/>
</g>
<g id="LWPOLYLINE_225_">
	<rect x="335.2" y="220.7" class="st0" width="9.4" height="18.9"/>
</g>
<g id="LWPOLYLINE_224_">
	<rect x="335.2" y="239.6" class="st0" width="9.4" height="18.9"/>
</g>
<g id="LWPOLYLINE_223_">
	<rect x="335.2" y="258.5" class="st0" width="9.4" height="18.9"/>
</g>
<g id="LWPOLYLINE_222_">
	<rect x="344.6" y="258.5" class="st0" width="19" height="9.5"/>
</g>
<g id="LWPOLYLINE_221_">
	<rect x="363.6" y="258.5" class="st0" width="18.9" height="9.5"/>
</g>
<g id="LWPOLYLINE_220_">
	<rect x="344.6" y="268" class="st0" width="19" height="9.4"/>
</g>
<g id="LWPOLYLINE_219_">
	<rect x="363.6" y="268" class="st0" width="18.9" height="9.4"/>
</g>
<g id="LWPOLYLINE_218_">
	<rect x="228.6" y="269.8" class="st0" width="19" height="9.4"/>
</g>
<g id="LWPOLYLINE_217_">
	<rect x="228.6" y="279.2" class="st0" width="9.5" height="19"/>
</g>
<g id="LWPOLYLINE_216_">
	<rect x="228.6" y="298.2" class="st0" width="9.5" height="18.9"/>
</g>
<g id="LWPOLYLINE_215_">
	<rect x="238.1" y="279.2" class="st0" width="9.5" height="19"/>
</g>
<g id="LWPOLYLINE_214_">
	<rect x="238.1" y="298.2" class="st0" width="9.5" height="18.9"/>
</g>
<g id="LWPOLYLINE_213_">
	<rect x="247.6" y="269.8" class="st0" width="18.9" height="9.4"/>
</g>
<g id="LWPOLYLINE_212_">
	<rect x="266.5" y="269.8" class="st0" width="18.9" height="9.4"/>
</g>
<g id="LWPOLYLINE_211_">
	<rect x="285.4" y="269.8" class="st0" width="18.9" height="9.4"/>
</g>
<g id="LWPOLYLINE_210_">
	<rect x="285.4" y="279.2" class="st0" width="9.5" height="19"/>
</g>
<g id="LWPOLYLINE_209_">
	<rect x="285.4" y="298.2" class="st0" width="9.5" height="18.9"/>
</g>
<g id="LWPOLYLINE_208_">
	<rect x="294.9" y="279.2" class="st0" width="9.4" height="19"/>
</g>
<g id="LWPOLYLINE_207_">
	<rect x="294.9" y="298.2" class="st0" width="9.4" height="18.9"/>
</g>
<g id="LWPOLYLINE_206_">
	<rect x="228.6" y="331.2" class="st0" width="19" height="9.4"/>
</g>
<g id="LWPOLYLINE_205_">
	<rect x="228.6" y="340.6" class="st0" width="9.5" height="19"/>
</g>
<g id="LWPOLYLINE_204_">
	<rect x="228.6" y="359.6" class="st0" width="9.5" height="18.9"/>
</g>
<g id="LWPOLYLINE_203_">
	<rect x="238.1" y="340.6" class="st0" width="9.5" height="19"/>
</g>
<g id="LWPOLYLINE_202_">
	<rect x="238.1" y="359.6" class="st0" width="9.5" height="18.9"/>
</g>
<g id="LWPOLYLINE_201_">
	<rect x="247.6" y="331.2" class="st0" width="18.9" height="9.4"/>
</g>
<g id="LWPOLYLINE_200_">
	<rect x="266.5" y="331.2" class="st0" width="18.9" height="9.4"/>
</g>
<g id="LWPOLYLINE_199_">
	<rect x="285.4" y="331.2" class="st0" width="18.9" height="9.4"/>
</g>
<g id="LWPOLYLINE_198_">
	<rect x="285.4" y="340.6" class="st0" width="9.5" height="19"/>
</g>
<g id="LWPOLYLINE_197_">
	<rect x="285.4" y="359.6" class="st0" width="9.5" height="18.9"/>
</g>
<g id="LWPOLYLINE_196_">
	<rect x="294.9" y="340.6" class="st0" width="9.4" height="19"/>
</g>
<g id="LWPOLYLINE_195_">
	<rect x="294.9" y="359.6" class="st0" width="9.4" height="18.9"/>
</g>
<g id="LWPOLYLINE_194_">
	<rect x="14.2" y="293.5" class="st0" width="19" height="9.4"/>
</g>
<g id="LWPOLYLINE_193_">
	<rect x="14.2" y="302.9" class="st0" width="9.5" height="19"/>
</g>
<g id="LWPOLYLINE_192_">
	<rect x="14.2" y="322" class="st0" width="9.5" height="18.9"/>
</g>
<g id="LWPOLYLINE_191_">
	<rect x="23.7" y="302.9" class="st0" width="9.5" height="19"/>
</g>
<g id="LWPOLYLINE_190_">
	<rect x="23.7" y="322" class="st0" width="9.5" height="18.9"/>
</g>
<g id="LWPOLYLINE_189_">
	<rect x="33.2" y="293.5" class="st0" width="18.9" height="9.4"/>
</g>
<g id="LWPOLYLINE_188_">
	<rect x="52.1" y="293.5" class="st0" width="18.9" height="9.4"/>
</g>
<g id="LWPOLYLINE_187_">
	<rect x="71" y="293.5" class="st0" width="18.9" height="9.4"/>
</g>
<g id="LWPOLYLINE_186_">
	<rect x="71" y="302.9" class="st0" width="9.5" height="19"/>
</g>
<g id="LWPOLYLINE_185_">
	<rect x="71" y="322" class="st0" width="9.5" height="18.9"/>
</g>
<g id="LWPOLYLINE_184_">
	<rect x="80.5" y="302.9" class="st0" width="9.4" height="19"/>
</g>
<g id="LWPOLYLINE_183_">
	<rect x="80.5" y="322" class="st0" width="9.4" height="18.9"/>
</g>
<g id="LWPOLYLINE_182_">
	<rect x="583.5" y="201.6" class="st0" width="9.4" height="19"/>
</g>
<g id="LWPOLYLINE_181_">
	<rect x="592.9" y="201.6" class="st0" width="19" height="9.5"/>
</g>
<g id="LWPOLYLINE_180_">
	<rect x="611.9" y="201.6" class="st0" width="18.9" height="9.5"/>
</g>
<g id="LWPOLYLINE_179_">
	<rect x="592.9" y="211.1" class="st0" width="19" height="9.5"/>
</g>
<g id="LWPOLYLINE_178_">
	<rect x="611.9" y="211.1" class="st0" width="18.9" height="9.5"/>
</g>
<g id="LWPOLYLINE_177_">
	<rect x="583.6" y="267.4" class="st0" width="9.4" height="19"/>
</g>
<g id="LWPOLYLINE_176_">
	<rect x="593" y="267.4" class="st0" width="19" height="9.5"/>
</g>
<g id="LWPOLYLINE_175_">
	<rect x="612" y="267.4" class="st0" width="18.9" height="9.5"/>
</g>
<g id="LWPOLYLINE_174_">
	<rect x="593" y="276.9" class="st0" width="19" height="9.5"/>
</g>
<g id="LWPOLYLINE_173_">
	<rect x="612" y="276.9" class="st0" width="18.9" height="9.5"/>
</g>
<g id="LWPOLYLINE_172_">
	<rect x="583.6" y="229.4" class="st0" width="9.4" height="19"/>
</g>
<g id="LWPOLYLINE_171_">
	<rect x="583.6" y="248.4" class="st0" width="9.4" height="18.9"/>
</g>
<g id="LWPOLYLINE_170_">
	<rect x="257" y="298.2" class="st0" width="18.9" height="9.5"/>
</g>
<g id="LWPOLYLINE_169_">
	<rect x="257" y="211.1" class="st0" width="18.9" height="9.5"/>
</g>
<g id="LWPOLYLINE_168_">
	<rect x="163.5" y="230.1" class="st0" width="9.5" height="18.9"/>
</g>
<g id="LWPOLYLINE_167_">
	<rect x="103.1" y="230.1" class="st0" width="9.4" height="18.9"/>
</g>
<g id="LWPOLYLINE_166_">
	<rect x="42.6" y="230.1" class="st0" width="9.5" height="18.9"/>
</g>
<g id="LWPOLYLINE_165_">
	<rect x="42.6" y="322" class="st0" width="18.9" height="9.4"/>
</g>
<g id="LWPOLYLINE_164_">
	<rect x="257" y="359.5" class="st0" width="18.9" height="9.5"/>
</g>
<g id="LWPOLYLINE_163_">
	<rect x="436.4" y="274.8" class="st0" width="18.9" height="9.5"/>
</g>
<g id="LWPOLYLINE_162_">
	<rect x="363.6" y="230.7" class="st0" width="9.4" height="18.9"/>
</g>
<g id="LWPOLYLINE_161_">
	<rect x="436.4" y="211.1" class="st0" width="18.9" height="9.5"/>
</g>
<g id="LWPOLYLINE_160_">
	<rect x="540.7" y="230.1" class="st0" width="9.4" height="18.9"/>
</g>
<g id="LWPOLYLINE_159_">
	<rect x="612.5" y="239.6" class="st0" width="9.5" height="18.9"/>
</g>
<g id="LWPOLYLINE_158_">
	<polygon class="st0" points="630.8,175.6 630.8,305.9 634.2,305.9 634.2,393.5 838.4,393.5 841.9,194.9 829.8,194.9 829.8,206.8 
		788.9,206.4 788.9,193.8 721.1,193.8 721.1,174.8 630.8,174.8 	"/>
</g>
</svg>
